<mxfile host="app.diagrams.net" agent="Mozilla/5.0 (Windows NT 10.0; Win64; x64) AppleWebKit/537.36 (KHTML, like Gecko) Chrome/137.0.0.0 Safari/537.36" version="27.1.6">
  <diagram name="Page-1" id="c4acf3e9-155e-7222-9cf6-157b1a14988f">
    <mxGraphModel dx="1111" dy="473" grid="1" gridSize="10" guides="1" tooltips="1" connect="1" arrows="1" fold="1" page="1" pageScale="1" pageWidth="850" pageHeight="1100" background="none" math="0" shadow="0">
      <root>
        <mxCell id="0" />
        <mxCell id="1" parent="0" />
        <mxCell id="2" value="Sistema de Punto de Venta Parroquial" style="rounded=0;whiteSpace=wrap;html=1;verticalAlign=top;fontSize=14;fontStyle=1;fillColor=none;strokeColor=#000000;strokeWidth=2;" parent="1" vertex="1">
          <mxGeometry x="200" y="80" width="500" height="420" as="geometry" />
        </mxCell>
        <mxCell id="3" value="Feligrés&#xa;(Novios)" style="shape=umlActor;verticalLabelPosition=bottom;verticalAlign=top;html=1;outlineConnect=0;" parent="1" vertex="1">
          <mxGeometry x="50" y="180" width="30" height="60" as="geometry" />
        </mxCell>
        <mxCell id="4" value="Secretaría&#xa;Parroquial" style="shape=umlActor;verticalLabelPosition=bottom;verticalAlign=top;html=1;outlineConnect=0;" parent="1" vertex="1">
          <mxGeometry x="50" y="340" width="30" height="60" as="geometry" />
        </mxCell>
        <mxCell id="5" value="Sistema de&#xa;Pagos Digital" style="shape=umlActor;verticalLabelPosition=bottom;verticalAlign=top;html=1;outlineConnect=0;" parent="1" vertex="1">
          <mxGeometry x="750" y="220" width="30" height="60" as="geometry" />
        </mxCell>
        <mxCell id="6" value="Párroco" style="shape=umlActor;verticalLabelPosition=bottom;verticalAlign=top;html=1;outlineConnect=0;" parent="1" vertex="1">
          <mxGeometry x="750" y="360" width="30" height="60" as="geometry" />
        </mxCell>
        <mxCell id="7" value="Solicitar&#xa;matrimonio" style="ellipse;whiteSpace=wrap;html=1;fillColor=#e1d5e7;strokeColor=#9673a6;" parent="1" vertex="1">
          <mxGeometry x="230" y="120" width="100" height="60" as="geometry" />
        </mxCell>
        <mxCell id="8" value="Proporcionar&#xa;datos de novios" style="ellipse;whiteSpace=wrap;html=1;fillColor=#e1d5e7;strokeColor=#9673a6;" parent="1" vertex="1">
          <mxGeometry x="410" y="120" width="100" height="60" as="geometry" />
        </mxCell>
        <mxCell id="9" value="Verificar&#xa;disponibilidad&#xa;de fecha y hora" style="ellipse;whiteSpace=wrap;html=1;fillColor=#d5e8d4;strokeColor=#82b366;" parent="1" vertex="1">
          <mxGeometry x="565" y="120" width="110" height="60" as="geometry" />
        </mxCell>
        <mxCell id="10" value="Registrar&#xa;matrimonio en&#xa;base de datos" style="ellipse;whiteSpace=wrap;html=1;fillColor=#d5e8d4;strokeColor=#82b366;" parent="1" vertex="1">
          <mxGeometry x="230" y="210" width="110" height="60" as="geometry" />
        </mxCell>
        <mxCell id="11" value="Realizar pago&#xa;del matrimonio" style="ellipse;whiteSpace=wrap;html=1;fillColor=#e1d5e7;strokeColor=#9673a6;" parent="1" vertex="1">
          <mxGeometry x="380" y="210" width="100" height="60" as="geometry" />
        </mxCell>
        <mxCell id="12" value="Emitir recibo&#xa;digital" style="ellipse;whiteSpace=wrap;html=1;fillColor=#d5e8d4;strokeColor=#82b366;" parent="1" vertex="1">
          <mxGeometry x="570" y="180" width="100" height="60" as="geometry" />
        </mxCell>
        <mxCell id="13" value="Consultar&#xa;matrimonios&#xa;agendados" style="ellipse;whiteSpace=wrap;html=1;fillColor=#fff2cc;strokeColor=#d6b656;" parent="1" vertex="1">
          <mxGeometry x="230" y="300" width="100" height="60" as="geometry" />
        </mxCell>
        <mxCell id="14" value="Gestionar&#xa;calendario de&#xa;matrimonios" style="ellipse;whiteSpace=wrap;html=1;fillColor=#fff2cc;strokeColor=#d6b656;" parent="1" vertex="1">
          <mxGeometry x="370" y="300" width="100" height="60" as="geometry" />
        </mxCell>
        <mxCell id="15" value="Validar&#xa;documentación&#xa;matrimonial" style="ellipse;whiteSpace=wrap;html=1;fillColor=#fff2cc;strokeColor=#d6b656;" parent="1" vertex="1">
          <mxGeometry x="570" y="340" width="100" height="60" as="geometry" />
        </mxCell>
        <mxCell id="16" value="Configurar&#xa;tarifas de&#xa;matrimonios" style="ellipse;whiteSpace=wrap;html=1;fillColor=#fff2cc;strokeColor=#d6b656;" parent="1" vertex="1">
          <mxGeometry x="300" y="390" width="100" height="60" as="geometry" />
        </mxCell>
        <mxCell id="17" value="Aprobar&#xa;matrimonio" style="ellipse;whiteSpace=wrap;html=1;fillColor=#dae8fc;strokeColor=#6c8ebf;" parent="1" vertex="1">
          <mxGeometry x="450" y="390" width="100" height="60" as="geometry" />
        </mxCell>
        <mxCell id="18" value="" style="endArrow=none;html=1;rounded=0;" parent="1" source="3" target="7" edge="1">
          <mxGeometry width="50" height="50" relative="1" as="geometry">
            <mxPoint x="300" y="300" as="sourcePoint" />
            <mxPoint x="350" y="250" as="targetPoint" />
          </mxGeometry>
        </mxCell>
        <mxCell id="19" value="" style="endArrow=none;html=1;rounded=0;" parent="1" source="3" target="8" edge="1">
          <mxGeometry width="50" height="50" relative="1" as="geometry">
            <mxPoint x="300" y="300" as="sourcePoint" />
            <mxPoint x="350" y="250" as="targetPoint" />
          </mxGeometry>
        </mxCell>
        <mxCell id="20" value="" style="endArrow=none;html=1;rounded=0;" parent="1" source="3" target="11" edge="1">
          <mxGeometry width="50" height="50" relative="1" as="geometry">
            <mxPoint x="300" y="300" as="sourcePoint" />
            <mxPoint x="350" y="250" as="targetPoint" />
          </mxGeometry>
        </mxCell>
        <mxCell id="21" value="" style="endArrow=none;html=1;rounded=0;" parent="1" source="4" target="13" edge="1">
          <mxGeometry width="50" height="50" relative="1" as="geometry">
            <mxPoint x="300" y="400" as="sourcePoint" />
            <mxPoint x="350" y="350" as="targetPoint" />
          </mxGeometry>
        </mxCell>
        <mxCell id="22" value="" style="endArrow=none;html=1;rounded=0;" parent="1" source="4" target="14" edge="1">
          <mxGeometry width="50" height="50" relative="1" as="geometry">
            <mxPoint x="300" y="400" as="sourcePoint" />
            <mxPoint x="350" y="350" as="targetPoint" />
          </mxGeometry>
        </mxCell>
        <mxCell id="23" value="" style="endArrow=none;html=1;rounded=0;" parent="1" source="4" target="15" edge="1">
          <mxGeometry width="50" height="50" relative="1" as="geometry">
            <mxPoint x="300" y="400" as="sourcePoint" />
            <mxPoint x="350" y="350" as="targetPoint" />
          </mxGeometry>
        </mxCell>
        <mxCell id="24" value="" style="endArrow=none;html=1;rounded=0;" parent="1" source="4" target="16" edge="1">
          <mxGeometry width="50" height="50" relative="1" as="geometry">
            <mxPoint x="300" y="400" as="sourcePoint" />
            <mxPoint x="350" y="350" as="targetPoint" />
          </mxGeometry>
        </mxCell>
        <mxCell id="25" value="" style="endArrow=none;html=1;rounded=0;" parent="1" source="5" target="11" edge="1">
          <mxGeometry width="50" height="50" relative="1" as="geometry">
            <mxPoint x="650" y="300" as="sourcePoint" />
            <mxPoint x="700" y="250" as="targetPoint" />
          </mxGeometry>
        </mxCell>
        <mxCell id="26" value="" style="endArrow=none;html=1;rounded=0;" parent="1" source="6" target="17" edge="1">
          <mxGeometry width="50" height="50" relative="1" as="geometry">
            <mxPoint x="650" y="400" as="sourcePoint" />
            <mxPoint x="700" y="350" as="targetPoint" />
          </mxGeometry>
        </mxCell>
        <mxCell id="27" value="&amp;lt;&amp;lt;include&amp;gt;&amp;gt;" style="endArrow=open;endSize=12;dashed=1;html=1;rounded=0;" parent="1" source="7" target="8" edge="1">
          <mxGeometry width="160" relative="1" as="geometry">
            <mxPoint x="300" y="200" as="sourcePoint" />
            <mxPoint x="460" y="200" as="targetPoint" />
          </mxGeometry>
        </mxCell>
        <mxCell id="28" value="&amp;lt;&amp;lt;include&amp;gt;&amp;gt;" style="endArrow=open;endSize=12;dashed=1;html=1;rounded=0;" parent="1" source="8" target="9" edge="1">
          <mxGeometry width="160" relative="1" as="geometry">
            <mxPoint x="400" y="180" as="sourcePoint" />
            <mxPoint x="560" y="180" as="targetPoint" />
          </mxGeometry>
        </mxCell>
        <mxCell id="29" value="&amp;lt;&amp;lt;include&amp;gt;&amp;gt;" style="endArrow=open;endSize=12;dashed=1;html=1;rounded=0;" parent="1" source="7" target="10" edge="1">
          <mxGeometry width="160" relative="1" as="geometry">
            <mxPoint x="300" y="220" as="sourcePoint" />
            <mxPoint x="460" y="220" as="targetPoint" />
          </mxGeometry>
        </mxCell>
        <mxCell id="30" value="&amp;lt;&amp;lt;include&amp;gt;&amp;gt;" style="endArrow=open;endSize=12;dashed=1;html=1;rounded=0;" parent="1" source="11" target="12" edge="1">
          <mxGeometry width="160" relative="1" as="geometry">
            <mxPoint x="450" y="250" as="sourcePoint" />
            <mxPoint x="610" y="250" as="targetPoint" />
          </mxGeometry>
        </mxCell>
        <mxCell id="31" value="&amp;lt;&amp;lt;extend&amp;gt;&amp;gt;" style="endArrow=open;endSize=12;dashed=1;html=1;rounded=0;" parent="1" source="15" target="7" edge="1">
          <mxGeometry x="-0.5488" y="-10" width="160" relative="1" as="geometry">
            <mxPoint x="500" y="280" as="sourcePoint" />
            <mxPoint x="660" y="280" as="targetPoint" />
            <mxPoint as="offset" />
          </mxGeometry>
        </mxCell>
        <mxCell id="32" value="&amp;lt;&amp;lt;extend&amp;gt;&amp;gt;" style="endArrow=open;endSize=12;dashed=1;html=1;rounded=0;" parent="1" source="17" target="10" edge="1">
          <mxGeometry x="-0.6685" y="8" width="160" relative="1" as="geometry">
            <mxPoint x="450" y="350" as="sourcePoint" />
            <mxPoint x="610" y="350" as="targetPoint" />
            <mxPoint as="offset" />
          </mxGeometry>
        </mxCell>
        <mxCell id="33" value="Leyenda:" style="text;html=1;strokeColor=none;fillColor=none;align=left;verticalAlign=top;whiteSpace=wrap;rounded=0;fontSize=12;fontStyle=1;" parent="1" vertex="1">
          <mxGeometry x="50" y="540" width="60" height="20" as="geometry" />
        </mxCell>
        <mxCell id="34" value="Casos de uso del Feligrés" style="ellipse;whiteSpace=wrap;html=1;fillColor=#e1d5e7;strokeColor=#9673a6;fontSize=10;" parent="1" vertex="1">
          <mxGeometry x="50" y="570" width="80" height="40" as="geometry" />
        </mxCell>
        <mxCell id="35" value="Casos de uso del Sistema" style="ellipse;whiteSpace=wrap;html=1;fillColor=#d5e8d4;strokeColor=#82b366;fontSize=10;" parent="1" vertex="1">
          <mxGeometry x="150" y="570" width="80" height="40" as="geometry" />
        </mxCell>
        <mxCell id="36" value="Casos de uso Administrativos" style="ellipse;whiteSpace=wrap;html=1;fillColor=#fff2cc;strokeColor=#d6b656;fontSize=10;" parent="1" vertex="1">
          <mxGeometry x="250" y="570" width="80" height="40" as="geometry" />
        </mxCell>
        <mxCell id="37" value="Casos de uso del Párroco" style="ellipse;whiteSpace=wrap;html=1;fillColor=#dae8fc;strokeColor=#6c8ebf;fontSize=10;" parent="1" vertex="1">
          <mxGeometry x="350" y="570" width="80" height="40" as="geometry" />
        </mxCell>
        <mxCell id="38" value="Flujo Principal de Matrimonios:&#xa;1. Solicitud → 2. Datos de novios → 3. Verificación disponibilidad →&#xa;4. Registro → 5. Pago → 6. Recibo → [Aprobación pároco]" style="rounded=1;whiteSpace=wrap;html=1;fillColor=#f8cecc;strokeColor=#b85450;fontSize=10;fontStyle=2;" parent="1" vertex="1">
          <mxGeometry x="500" y="540" width="300" height="70" as="geometry" />
        </mxCell>
        <mxCell id="Do-ekxuCIl4ruvbjuQm2-38" value="DIAGRAMA DE CASO DE USO DE MATRIMONIO PARTICULAR" style="text;whiteSpace=wrap;html=1;" vertex="1" parent="1">
          <mxGeometry x="260" y="30" width="360" height="40" as="geometry" />
        </mxCell>
      </root>
    </mxGraphModel>
  </diagram>
</mxfile>
